<svg width="80" height="80" viewBox="0 0 80 80" fill="none" xmlns="http://www.w3.org/2000/svg">
<g clip-path="url(#clip0_28_194)">
<path d="M40 80C32.0888 80 24.3552 77.6541 17.7772 73.2588C11.1992 68.8635 6.07234 62.6164 3.04484 55.3074C0.0173314 47.9983 -0.774802 39.9556 0.768607 32.1964C2.31202 24.4372 6.12165 17.3098 11.7157 11.7157C17.3098 6.12165 24.4372 2.31202 32.1964 0.768607C39.9556 -0.774802 47.9983 0.0173314 55.3074 3.04484C62.6164 6.07234 68.8635 11.1992 73.2588 17.7772C77.6541 24.3552 80 32.0888 80 40C79.9885 50.6052 75.7706 60.7727 68.2716 68.2716C60.7727 75.7706 50.6052 79.9885 40 80ZM40 6.66668C33.4073 6.66668 26.9626 8.62165 21.481 12.2844C15.9994 15.9471 11.727 21.153 9.20403 27.2439C6.68111 33.3348 6.021 40.037 7.30718 46.503C8.59335 52.9691 11.768 58.9085 16.4298 63.5702C21.0915 68.232 27.031 71.4067 33.497 72.6929C39.963 73.979 46.6653 73.3189 52.7561 70.796C58.847 68.2731 64.053 64.0007 67.7157 58.519C71.3784 53.0374 73.3334 46.5927 73.3334 40C73.3236 31.1624 69.8086 22.6896 63.5595 16.4405C57.3104 10.1914 48.8376 6.67639 40 6.66668ZM58.8867 52.4867L54.4534 47.5067C50.3785 50.9376 45.3151 52.9788 40 53.3334C34.6881 52.9791 29.6274 50.9403 25.5534 47.5134L21.1133 52.4867C26.4062 57.0084 33.0474 59.6504 40 60C46.9526 59.6504 53.5938 57.0084 58.8867 52.4867ZM33.3334 36.6667V33.3334C33.3334 31.5652 32.631 29.8696 31.3807 28.6193C30.1305 27.3691 28.4348 26.6667 26.6667 26.6667C24.8986 26.6667 23.2029 27.3691 21.9526 28.6193C20.7024 29.8696 20 31.5652 20 33.3334V36.6667H33.3334ZM46.6667 33.3334V36.6667H60V33.3334C60 31.5652 59.2976 29.8696 58.0474 28.6193C56.7972 27.3691 55.1015 26.6667 53.3334 26.6667C51.5652 26.6667 49.8695 27.3691 48.6193 28.6193C47.3691 29.8696 46.6667 31.5652 46.6667 33.3334Z" fill="#374957"/>
</g>
<defs>
<clipPath id="clip0_28_194">
<rect width="80" height="80" fill="white"/>
</clipPath>
</defs>
</svg>
