<svg width="80" height="80" viewBox="0 0 80 80" fill="none" xmlns="http://www.w3.org/2000/svg">
<g clip-path="url(#clip0_77_416)">
<path d="M52.3347 23.7807L46.168 27.3341C44.4692 25.6225 42.338 24.4037 40.0014 23.8074V16.6674H33.3347V23.8074C30.998 24.4037 28.8668 25.6225 27.168 27.3341L21.0014 23.7807L17.668 29.5541L23.8714 33.1307C23.5327 34.2798 23.3522 35.4696 23.3347 36.6674C23.3522 37.8652 23.5327 39.055 23.8714 40.2041L17.668 43.7807L21.0014 49.5541L27.168 46.0007C28.8668 47.7123 30.998 48.9311 33.3347 49.5274V56.6674H40.0014V49.5274C42.338 48.9311 44.4692 47.7123 46.168 46.0007L52.3347 49.5541L55.668 43.7807L49.478 40.2041C49.8121 39.0544 49.9882 37.8646 50.0014 36.6674C49.9839 35.4696 49.8033 34.2798 49.4647 33.1307L55.668 29.5541L52.3347 23.7807ZM36.668 43.3341C35.3495 43.3341 34.0606 42.9431 32.9642 42.2105C31.8679 41.478 31.0134 40.4368 30.5088 39.2186C30.0043 38.0004 29.8722 36.66 30.1295 35.3668C30.3867 34.0736 31.0216 32.8857 31.954 31.9534C32.8863 31.021 34.0742 30.3861 35.3674 30.1288C36.6606 29.8716 38.0011 30.0036 39.2193 30.5082C40.4374 31.0128 41.4786 31.8673 42.2112 32.9636C42.9437 34.0599 43.3347 35.3489 43.3347 36.6674C43.3347 38.4355 42.6323 40.1312 41.3821 41.3814C40.1318 42.6317 38.4361 43.3341 36.668 43.3341ZM77.5747 37.1074C74.5893 29.2287 70.7059 21.7203 66.0014 14.7307C62.0935 9.4354 56.8207 5.30092 50.7462 2.76882C44.6716 0.236725 38.0233 -0.597907 31.5114 0.354058C25.0505 1.27263 18.9518 3.89887 13.8449 7.96167C8.73805 12.0245 4.80799 17.3766 2.46045 23.4656C0.112916 29.5546 -0.567029 36.1598 0.490808 42.5993C1.54865 49.0389 4.30593 55.0794 8.47803 60.0974C9.46157 61.2786 10.0005 62.767 10.0014 64.3041V80.0007H53.3347V70.0007H60.8247C63.2478 69.9951 65.5869 69.1121 67.4093 67.5152C69.2317 65.9183 70.4142 63.7154 70.738 61.3141L72.2347 50.0007H80.0014V42.6274C80.0014 42.6274 78.288 38.7407 77.5747 37.1074ZM66.3914 43.3341L64.1314 60.4374C64.0254 61.2392 63.6316 61.9751 63.0232 62.5081C62.4149 63.041 61.6335 63.3346 60.8247 63.3341H46.668V73.3341H16.668V64.3041C16.6663 61.2082 15.5814 58.2106 13.6014 55.8307C11.0204 52.7512 9.0848 49.1843 7.9096 45.3419C6.73439 41.4995 6.34356 37.4601 6.76033 33.4638C7.17709 29.4674 8.39295 25.5955 10.3357 22.0783C12.2784 18.5611 14.9083 15.4703 18.0691 12.9895C21.2299 10.5088 24.8571 8.68874 28.7353 7.63753C32.6134 6.58632 36.6633 6.32541 40.6442 6.8703C44.6252 7.41519 48.456 8.75477 51.909 10.8094C55.362 12.8641 58.3667 15.5919 60.7447 18.8307C65.0634 25.4057 68.6577 32.4288 71.4647 39.7774C71.9847 40.9674 72.5047 42.1607 73.0247 43.3407L66.3914 43.3341Z" fill="#374957"/>
</g>
<defs>
<clipPath id="clip0_77_416">
<rect width="80" height="80" fill="white"/>
</clipPath>
</defs>
</svg>
