<svg width="80" height="80" viewBox="0 0 80 80" fill="none" xmlns="http://www.w3.org/2000/svg">
<path d="M77.0698 23.7402L69.0231 15.6902L75.6898 9.02353L70.9765 4.3102L64.3098 10.9769L56.2631 2.9302C55.3345 2.00144 54.2321 1.26469 53.0187 0.762038C51.8053 0.259385 50.5048 0.000671387 49.1915 0.000671387C47.8781 0.000671387 46.5776 0.259385 45.3643 0.762038C44.1509 1.26469 43.0484 2.00144 42.1198 2.9302L32.6931 12.3569L47.8098 27.4769L27.4765 47.8102L12.3565 32.6935L2.92982 42.1202C1.05511 43.9955 0.00195312 46.5386 0.00195312 49.1902C0.00195312 51.8418 1.05511 54.3849 2.92982 56.2602L10.9765 64.3102L4.30982 70.9769L9.02315 75.6902L15.6898 69.0235L23.7365 77.0702C24.6651 77.999 25.7676 78.7357 26.9809 79.2384C28.1943 79.741 29.4948 79.9997 30.8082 79.9997C32.1215 79.9997 33.422 79.741 34.6354 79.2384C35.8487 78.7357 36.9512 77.999 37.8798 77.0702L47.3065 67.6435L32.1898 52.5235L52.5231 32.1902L67.6398 47.3069L77.0665 37.8802C78.9412 36.0049 79.9943 33.4618 79.9943 30.8102C79.9943 28.1586 78.9412 25.6155 77.0665 23.7402H77.0698ZM33.1665 72.3569C32.8569 72.6668 32.4893 72.9126 32.0846 73.0804C31.68 73.2481 31.2462 73.3345 30.8082 73.3345C30.3701 73.3345 29.9363 73.2481 29.5317 73.0804C29.127 72.9126 28.7594 72.6668 28.4498 72.3569L7.64315 51.5469C7.01825 50.9218 6.6672 50.0741 6.6672 49.1902C6.6672 48.3063 7.01825 47.4586 7.64315 46.8335L12.3565 42.1202L37.8798 67.6435L33.1665 72.3569ZM72.3565 33.1635L67.6431 37.8802L42.1198 12.3569L46.8331 7.64354C47.1427 7.33361 47.5104 7.08775 47.915 6.92C48.3197 6.75226 48.7534 6.66591 49.1915 6.66591C49.6295 6.66591 50.0633 6.75226 50.4679 6.92C50.8726 7.08775 51.2402 7.33361 51.5498 7.64354L72.3565 28.4535C72.9804 29.0785 73.3308 29.9255 73.3308 30.8085C73.3308 31.6916 72.9804 32.5386 72.3565 33.1635Z" fill="#374957"/>
</svg>
