<svg width="80" height="80" viewBox="0 0 80 80" fill="none" xmlns="http://www.w3.org/2000/svg">
<g clip-path="url(#clip0_17_1256)">
<path d="M68 9.99997H12L11 11C4 19 0 29.3333 0 40C0 58.3333 7.33333 73.3333 16.6667 73.3333C24 73.3333 27.6667 62.6666 29.3333 56.6666H50.6667C52.3333 62.6666 56 73.3333 63.3333 73.3333C72.6667 73.3333 80 58.3333 80 40C80 29.3333 76 19 69 11L68 9.99997ZM63.3333 66.6666C61.3333 66.6666 58 59.6666 56.6667 52.6666L56 50H24L23.3333 52.6666C22 59.6666 18.6667 66.6666 16.6667 66.6666C13.3333 66.6666 6.66667 56.3333 6.66667 40C6.66667 31.6666 9.66667 23.3333 15 16.6666H65.3333C70.6667 23.3333 73.3333 31.6666 73.3333 40C73.3333 56.3333 66.6667 66.6666 63.3333 66.6666Z" fill="#374957"/>
<path d="M26.6677 23.3344H20.001V30.001H13.3344V36.6677H20.001V43.3344H26.6677V36.6677H33.3344V30.001H26.6677V23.3344Z" fill="#374957"/>
<path d="M61.6655 33.3344C64.427 33.3344 66.6655 31.0958 66.6655 28.3344C66.6655 25.5729 64.427 23.3344 61.6655 23.3344C58.9041 23.3344 56.6655 25.5729 56.6655 28.3344C56.6655 31.0958 58.9041 33.3344 61.6655 33.3344Z" fill="#374957"/>
<path d="M51.6655 43.3344C54.427 43.3344 56.6655 41.0958 56.6655 38.3344C56.6655 35.5729 54.427 33.3344 51.6655 33.3344C48.9041 33.3344 46.6655 35.5729 46.6655 38.3344C46.6655 41.0958 48.9041 43.3344 51.6655 43.3344Z" fill="#374957"/>
</g>
<defs>
<clipPath id="clip0_17_1256">
<rect width="80" height="80" fill="white"/>
</clipPath>
</defs>
</svg>

