<svg width="80" height="80" viewBox="0 0 80 80" fill="none" xmlns="http://www.w3.org/2000/svg">
<g clip-path="url(#clip0_85_588)">
<path d="M40 80C32.0888 80 24.3552 77.6541 17.7772 73.2588C11.1992 68.8635 6.07234 62.6164 3.04484 55.3074C0.0173314 47.9983 -0.774802 39.9556 0.768607 32.1964C2.31202 24.4372 6.12165 17.3098 11.7157 11.7157C17.3098 6.12165 24.4372 2.31202 32.1964 0.768607C39.9556 -0.774802 47.9983 0.0173314 55.3074 3.04484C62.6164 6.07234 68.8635 11.1992 73.2588 17.7772C77.6541 24.3552 80 32.0888 80 40C79.9885 50.6052 75.7706 60.7727 68.2716 68.2716C60.7727 75.7706 50.6052 79.9885 40 80ZM40 6.66668C33.4073 6.66668 26.9626 8.62165 21.481 12.2844C15.9994 15.9471 11.727 21.153 9.20403 27.2439C6.68111 33.3348 6.021 40.037 7.30718 46.503C8.59335 52.9691 11.768 58.9085 16.4298 63.5702C21.0915 68.232 27.031 71.4067 33.497 72.6929C39.963 73.979 46.6653 73.3189 52.7561 70.796C58.847 68.2731 64.053 64.0007 67.7157 58.519C71.3784 53.0374 73.3334 46.5927 73.3334 40C73.3236 31.1624 69.8086 22.6896 63.5595 16.4405C57.3104 10.1914 48.8376 6.67639 40 6.66668Z" fill="black"/>
<path d="M43.3322 49.9988H36.6655V47.5221C36.6163 45.1702 37.1974 42.8479 38.3486 40.7964C39.4998 38.7449 41.1791 37.0389 43.2122 35.8554C44.4437 35.1771 45.4293 34.1268 46.028 32.8546C46.6267 31.5824 46.8078 30.1535 46.5455 28.7721C46.2858 27.4561 45.6396 26.2474 44.6897 25.3004C43.7397 24.3534 42.529 23.7111 41.2122 23.4554C40.2512 23.2776 39.263 23.3132 38.3173 23.5597C37.3716 23.8061 36.4917 24.2575 35.7399 24.8818C34.9881 25.5061 34.3827 26.2881 33.9666 27.1724C33.5505 28.0566 33.3339 29.0215 33.3322 29.9988H26.6655C26.6664 27.6471 27.2891 25.3375 28.4707 23.3043C29.6523 21.271 31.3506 19.5864 33.3933 18.4214C35.4361 17.2564 37.7507 16.6523 40.1022 16.6706C42.4538 16.6888 44.7587 17.3287 46.7832 18.5253C48.8076 19.7218 50.4796 21.4326 51.6295 23.4839C52.7794 25.5352 53.3663 27.8542 53.3306 30.2056C53.295 32.557 52.6381 34.8571 51.4265 36.8726C50.215 38.8882 48.4919 40.5474 46.4322 41.6821C45.448 42.2974 44.6433 43.1612 44.0991 44.1864C43.5548 45.2116 43.2903 46.3622 43.3322 47.5221V49.9988Z" fill="black"/>
<path d="M43.3322 56.6656H36.6655V63.3324H43.3322V56.6656Z" fill="black"/>
</g>
<defs>
<clipPath id="clip0_85_588">
<rect width="80" height="80" fill="white"/>
</clipPath>
</defs>
</svg>
