<svg width="80" height="80" viewBox="0 0 80 80" fill="none" xmlns="http://www.w3.org/2000/svg">
<g clip-path="url(#clip0_85_592)">
<path d="M62.1866 3.10004L21.5466 43.74C19.9944 45.2839 18.7638 47.1202 17.9262 49.1428C17.0885 51.1655 16.6604 53.3342 16.6666 55.5234V60C16.6666 60.8841 17.0178 61.7319 17.6429 62.3571C18.268 62.9822 19.1158 63.3334 19.9999 63.3334H24.4766C26.6658 63.3396 28.8345 62.9114 30.8571 62.0738C32.8797 61.2361 34.7161 60.0056 36.2599 58.4534L76.8999 17.8134C78.8479 15.8606 79.9419 13.215 79.9419 10.4567C79.9419 7.69845 78.8479 5.0528 76.8999 3.10004C74.9188 1.20635 72.2838 0.149536 69.5433 0.149536C66.8027 0.149536 64.1677 1.20635 62.1866 3.10004ZM72.1866 13.1L31.5466 53.74C29.667 55.6081 27.1266 56.6598 24.4766 56.6667H23.3332V55.5234C23.3402 52.8733 24.3918 50.333 26.2599 48.4534L66.8999 7.81337C67.6119 7.13322 68.5586 6.75368 69.5433 6.75368C70.5279 6.75368 71.4746 7.13322 72.1866 7.81337C72.8864 8.51509 73.2794 9.46567 73.2794 10.4567C73.2794 11.4477 72.8864 12.3983 72.1866 13.1Z" fill="black"/>
<path d="M76.6667 29.93C75.7826 29.93 74.9348 30.2812 74.3096 30.9063C73.6845 31.5314 73.3333 32.3793 73.3333 33.2633V50H60C57.3478 50 54.8043 51.0536 52.9289 52.9289C51.0536 54.8043 50 57.3478 50 60V73.3333H16.6667C14.0145 73.3333 11.471 72.2798 9.5956 70.4044C7.72024 68.529 6.66667 65.9855 6.66667 63.3333V16.6667C6.66667 14.0145 7.72024 11.471 9.5956 9.5956C11.471 7.72024 14.0145 6.66667 16.6667 6.66667H46.8067C47.6907 6.66667 48.5386 6.31548 49.1637 5.69036C49.7888 5.06524 50.14 4.21739 50.14 3.33333C50.14 2.44928 49.7888 1.60143 49.1637 0.976311C48.5386 0.35119 47.6907 0 46.8067 0L16.6667 0C12.248 0.00529286 8.01186 1.76294 4.8874 4.8874C1.76294 8.01186 0.00529286 12.248 0 16.6667L0 63.3333C0.00529286 67.752 1.76294 71.9881 4.8874 75.1126C8.01186 78.2371 12.248 79.9947 16.6667 80H54.4767C56.6664 80.0063 58.8356 79.5782 60.8588 78.7405C62.8819 77.9029 64.7189 76.6723 66.2633 75.12L75.1167 66.26C76.6692 64.7162 77.9001 62.8799 78.7383 60.8574C79.5766 58.8348 80.0054 56.6661 80 54.4767V33.2633C80 32.3793 79.6488 31.5314 79.0237 30.9063C78.3986 30.2812 77.5507 29.93 76.6667 29.93ZM61.55 70.4067C60.2101 71.7434 58.5156 72.6687 56.6667 73.0733V60C56.6667 59.1159 57.0179 58.2681 57.643 57.643C58.2681 57.0179 59.116 56.6667 60 56.6667H73.0833C72.671 58.5117 71.7467 60.2031 70.4167 61.5467L61.55 70.4067Z" fill="black"/>
</g>
<defs>
<clipPath id="clip0_85_592">
<rect width="80" height="80" fill="white"/>
</clipPath>
</defs>
</svg>
