<svg width="80" height="80" viewBox="0 0 80 80" fill="none" xmlns="http://www.w3.org/2000/svg">
<path d="M80 80H0V10C0 7.34784 1.05357 4.8043 2.92893 2.92893C4.8043 1.05357 7.34784 0 10 0L70 0C72.6522 0 75.1957 1.05357 77.0711 2.92893C78.9464 4.8043 80 7.34784 80 10V80ZM6.66667 73.3333H73.3333V10C73.3333 9.11594 72.9821 8.2681 72.357 7.64298C71.7319 7.01786 70.8841 6.66667 70 6.66667H10C9.11594 6.66667 8.2681 7.01786 7.64298 7.64298C7.01786 8.2681 6.66667 9.11594 6.66667 10V73.3333ZM26.6667 59.0767V20.9233L60.0533 40L26.6667 59.0767ZM33.3333 32.41V47.59L46.6133 40L33.3333 32.41Z" fill="#374957"/>
</svg>
 