<svg width="80" height="80" viewBox="0 0 80 80" fill="none" xmlns="http://www.w3.org/2000/svg">
<g clip-path="url(#clip0_16_1221)">
<path d="M70 80.002H63.3333V63.192C63.3307 60.5787 62.2914 58.0732 60.4435 56.2252C58.5956 54.3773 56.09 53.338 53.4767 53.3354H26.5233C23.91 53.338 21.4045 54.3773 19.5565 56.2252C17.7086 58.0732 16.6693 60.5787 16.6667 63.192V80.002H10V63.192C10.0053 58.8114 11.7478 54.6117 14.8454 51.5141C17.943 48.4165 22.1427 46.674 26.5233 46.6687H53.4767C57.8573 46.674 62.057 48.4165 65.1546 51.5141C68.2522 54.6117 69.9947 58.8114 70 63.192V80.002Z" fill="black"/>
<path d="M39.9998 39.9998C36.0441 39.9998 32.1773 38.8268 28.8884 36.6292C25.5994 34.4316 23.0359 31.308 21.5222 27.6535C20.0084 23.9989 19.6124 19.9776 20.3841 16.098C21.1558 12.2184 23.0606 8.65471 25.8576 5.85766C28.6547 3.06061 32.2183 1.15579 36.098 0.38409C39.9776 -0.387615 43.9989 0.0084521 47.6534 1.5222C51.308 3.03596 54.4315 5.59941 56.6292 8.88839C58.8268 12.1774 59.9998 16.0442 59.9998 19.9998C59.9945 25.3025 57.8856 30.3865 54.1361 34.1361C50.3865 37.8857 45.3025 39.9945 39.9998 39.9998ZM39.9998 6.66646C37.3627 6.66646 34.7848 7.44845 32.5922 8.91353C30.3995 10.3786 28.6905 12.461 27.6814 14.8974C26.6722 17.3337 26.4082 20.0146 26.9226 22.601C27.4371 25.1874 28.707 27.5632 30.5717 29.4279C32.4364 31.2926 34.8122 32.5625 37.3986 33.0769C39.985 33.5914 42.6659 33.3274 45.1022 32.3182C47.5386 31.309 49.6209 29.6001 51.086 27.4074C52.5511 25.2147 53.3331 22.6369 53.3331 19.9998C53.3331 16.4636 51.9283 13.0722 49.4279 10.5717C46.9274 8.07122 43.536 6.66646 39.9998 6.66646Z" fill="black"/>
</g>
<defs>
<clipPath id="clip0_16_1221">
<rect width="80" height="80" fill="white"/>
</clipPath>
</defs>
</svg>
 