<svg width="80" height="80" viewBox="0 0 80 80" fill="none" xmlns="http://www.w3.org/2000/svg">
<path d="M73.3333 0V10H66.6667V0H13.3333V10H6.66667V0H0V80H6.66667V70H13.3333V80H66.6667V70H73.3333V80H80V0H73.3333ZM73.3333 16.6667V23.3333H66.6667V16.6667H73.3333ZM66.6667 43.3333H73.3333V50H66.6667V43.3333ZM66.6667 36.6667V30H73.3333V36.6667H66.6667ZM60 6.66667V36.6667H20V6.66667H60ZM6.66667 36.6667V30H13.3333V36.6667H6.66667ZM13.3333 43.3333V50H6.66667V43.3333H13.3333ZM13.3333 16.6667V23.3333H6.66667V16.6667H13.3333ZM6.66667 63.3333V56.6667H13.3333V63.3333H6.66667ZM20 73.3333V43.3333H60V73.3333H20ZM66.6667 63.3333V56.6667H73.3333V63.3333H66.6667Z" fill="#374957"/>
</svg>
